<svg xmlns="http://www.w3.org/2000/svg" viewBox="0 0 208.05 212.3"><defs><style>.cls-1{fill:#3e82f1;}.cls-1,.cls-2,.cls-3,.cls-4{fill-rule:evenodd;}.cls-2{fill:#32a753;}.cls-3{fill:#f9bb00;}.cls-4{fill:#e74133;}</style></defs><g id="Layer_2" data-name="Layer 2"><g id="구글"><path class="cls-1" d="M208.05,108.56a121.42,121.42,0,0,0-1.93-21.71h-100v41.06h57.13a48.82,48.82,0,0,1-21.19,32v26.63H176.4c20.07-18.48,31.65-45.69,31.65-78Z"/><path class="cls-2" d="M106.15,212.3c28.66,0,52.69-9.51,70.25-25.72L142.09,160c-9.5,6.37-21.66,10.13-35.94,10.13-27.65,0-51.05-18.67-59.4-43.76H11.29v27.5a106.11,106.11,0,0,0,94.86,58.48Z"/><path class="cls-3" d="M46.75,126.32a62.75,62.75,0,0,1,0-40.34V58.48H11.29a106.28,106.28,0,0,0,0,95.34l35.46-27.5Z"/><path class="cls-4" d="M106.15,42.22c15.58,0,29.58,5.35,40.58,15.87l30.44-30.44C158.79,10.52,134.76,0,106.15,0A106.11,106.11,0,0,0,11.29,58.48L46.75,86c8.35-25.09,31.75-43.76,59.4-43.76Z"/></g></g></svg>