<svg xmlns="http://www.w3.org/2000/svg" viewBox="0 0 339.01 348.76"><defs><style>.cls-1{fill:#fff;}.cls-2{fill:#bbd2ff;}.cls-2,.cls-3{stroke:#000;stroke-miterlimit:10;}.cls-3{fill:#ffeac5;}.cls-4{fill:#6c6a83;}</style></defs><g id="Layer_2" data-name="Layer 2"><g id="Layer_1-2" data-name="Layer 1"><circle class="cls-1" cx="184.3" cy="146.28" r="46.52" transform="translate(-41.95 81.66) rotate(-22.5)"/><path class="cls-2" d="M188.63,96.51A50,50,0,1,1,137.81,128a56.68,56.68,0,0,1,23.88-30.3c1.5-.94,2.94-2,4.88-3.3-2.31-4.19-4.44-8.47-7-12.53C149.44,65.46,135.89,52.28,120.34,41c-1.91-1.38-3.08-1.27-4.87.14C89.31,61.82,76.45,89.54,73.1,122c-2.84,27.43,2.32,53.39,17.06,77,27.9,44.7,86.49,61.17,132.26,33.72,27.22-16.32,41.25-40.51,39.24-72.66a73,73,0,0,0-21.58-48.1C227.36,99.14,207.09,93.75,188.63,96.51Z"/><path class="cls-3" d="M172.91,87.77c1.29,2.56,2.52,3.07,5.29,2.3,13.1-3.6,26.39-4.56,39.49-.41a76.6,76.6,0,0,1,17.78,8.16l.11-.17C246.1,82.23,247.82,69,240.72,58.13l-.11-.16a32.73,32.73,0,0,0-3.43-4.29c-19.72-20.84-72.57-26.06-102.65-11C150.29,54.85,163.67,69.33,172.91,87.77Z"/><path d="M184.3,196.26a50,50,0,0,0,4.33-99.75l-.68.1c-1.14-.08-2.28-.13-3.43-.13a50.06,50.06,0,0,0-48.1,36.43c.39-1.66.86-3.3,1.39-4.92a50,50,0,0,0,46.49,68.27Zm0-96.5a46.53,46.53,0,1,1-46.52,46.52A46.58,46.58,0,0,1,184.3,99.76Z"/><path d="M184.52,96.48c1.15,0,2.29,0,3.43.13l.68-.1c-1.42-.13-2.87-.2-4.33-.2A50,50,0,0,0,137.81,128c-.53,1.62-1,3.26-1.39,4.92A50.06,50.06,0,0,1,184.52,96.48Z"/><path d="M184.3,103.14a43.31,43.31,0,1,0,43.31,43.31A43.36,43.36,0,0,0,184.3,103.14Zm0,84.51a41.2,41.2,0,1,1,41.2-41.2A41.24,41.24,0,0,1,184.3,187.65Z"/><path d="M293.53,6.52a4.82,4.82,0,0,0-6.83,0L245.14,48.07c-.31-.36-.63-.7-.94-1a56.35,56.35,0,0,0-13.08-10L239,6a4.83,4.83,0,0,0-9.37-2.37l-7.35,29a115.36,115.36,0,0,0-34.63-7.86C164.16,23,141.12,27.29,125.9,36.38Q122.48,34,119,31.78c-2.4-1.52-4.63-3.29-7.29-5.21-10.78,10-19.3,22.16-26.94,35-11.26,18.94-19.13,39.05-20.79,61.2-2.75,36.81,6.87,69.81,31.77,97.48,33.08,36.77,88.2,45,131,20.14,36.18-21,52.66-63.57,39.28-102.29-4.88-14.14-12.38-25.83-22.77-34.61a3.9,3.9,0,0,0,.31-.4c14.31-21,12.4-36.64,7.14-46.92l42.83-42.83A4.82,4.82,0,0,0,293.53,6.52ZM261.66,160c2,32.15-12,56.34-39.24,72.66-45.77,27.45-104.36,11-132.26-33.72-14.74-23.59-19.9-49.55-17.06-77,3.35-32.45,16.21-60.17,42.37-80.82,1.79-1.41,3-1.52,4.87-.14,15.55,11.25,29.1,24.43,39.27,40.83,2.52,4.06,4.65,8.34,7,12.53-1.94,1.32-3.38,2.36-4.88,3.3A56.68,56.68,0,0,0,137.81,128,50,50,0,0,1,184.3,96.31c1.46,0,2.91.07,4.33.2,18.46-2.76,38.73,2.63,51.45,15.42A73,73,0,0,1,261.66,160ZM235.58,97.65l-.11.17a76.6,76.6,0,0,0-17.78-8.16c-13.1-4.15-26.39-3.19-39.49.41-2.77.77-4,.26-5.29-2.3-9.24-18.44-22.62-32.92-38.38-45.1,30.08-15,82.93-9.83,102.65,11A32.73,32.73,0,0,1,240.61,58l.11.16C247.82,69,246.1,82.23,235.58,97.65Z"/><path d="M184.3,96.48a50,50,0,1,0,50,50A50,50,0,0,0,184.3,96.48Zm0,96.5a46.53,46.53,0,1,1,46.53-46.53A46.58,46.58,0,0,1,184.3,193Z"/><path d="M217.29,155.77a34.28,34.28,0,0,0-47.43-40.41,59.55,59.55,0,0,1-18.1,20.31,34.29,34.29,0,0,0,40.86,44A39.72,39.72,0,0,1,217.29,155.77Zm-33,9a18.33,18.33,0,0,1-16.78-25.69,5.82,5.82,0,1,1,7.39-8.37,18.33,18.33,0,1,1,9.39,34.06Z"/><path class="cls-4" d="M184.3,128.13a18.18,18.18,0,0,0-9.39,2.59,5.82,5.82,0,0,1-7.39,8.37,18.33,18.33,0,1,0,16.78-11Z"/><path class="cls-1" d="M174.91,130.72a5.81,5.81,0,1,0,.9,3.09A5.81,5.81,0,0,0,174.91,130.72Z"/><path d="M48.19,341.84a6.59,6.59,0,0,1-6.92,6.92H6.93a6.78,6.78,0,0,1-5-1.92,6.77,6.77,0,0,1-1.92-5V296.35a6.77,6.77,0,0,1,1.92-5,6.78,6.78,0,0,1,5-1.92H41.27a6.59,6.59,0,0,1,6.92,6.92v15.14H40.36V297.56a1.07,1.07,0,0,0-1.2-1.21H9a1.07,1.07,0,0,0-1.21,1.21v43.07A1.07,1.07,0,0,0,9,341.84H39.16a1.06,1.06,0,0,0,1.2-1.21V326.78h7.83Z"/><path d="M93.9,341.84A6.59,6.59,0,0,1,87,348.76H63.86a6.59,6.59,0,0,1-6.93-6.92V316.16a6.59,6.59,0,0,1,6.93-6.93H87a6.59,6.59,0,0,1,6.93,6.93ZM85,342a1.06,1.06,0,0,0,1.2-1.21V317.21A1.06,1.06,0,0,0,85,316H65.81a1.06,1.06,0,0,0-1.2,1.2v23.57a1.06,1.06,0,0,0,1.2,1.21Z"/><path d="M138.86,341.84a6.59,6.59,0,0,1-6.93,6.92H109.56a6.59,6.59,0,0,1-6.92-6.92V316.16a6.59,6.59,0,0,1,6.92-6.93h22.37a6.59,6.59,0,0,1,6.93,6.93v7.08h-7.68v-6A1.07,1.07,0,0,0,130,316H111.52a1.06,1.06,0,0,0-1.2,1.2v23.57a1.06,1.06,0,0,0,1.2,1.21H130a1.07,1.07,0,0,0,1.21-1.21v-8h7.68Z"/><path d="M185,348.76h-7.68V317.21a1.07,1.07,0,0,0-1.21-1.2H155.72v32.75H148v-62h7.68v22.44h22.37a6.59,6.59,0,0,1,6.93,6.93Z"/><path d="M202.34,348.76h-7.69v-62h7.69Z"/><path d="M247.67,341.84a6.59,6.59,0,0,1-6.93,6.92h-22a6.59,6.59,0,0,1-6.93-6.92V316.16a6.59,6.59,0,0,1,6.93-6.93h22.74a6.59,6.59,0,0,1,6.93,6.93v10.47a6,6,0,0,1-6.55,6.55H219.5v7.6a1.07,1.07,0,0,0,1.21,1.21h18.07a1.07,1.07,0,0,0,1.21-1.21v-4.37h7.68Zm-8.14-15.29a1.06,1.06,0,0,0,1.21-1.2v-8.14a1.06,1.06,0,0,0-1.21-1.2H220.71a1.07,1.07,0,0,0-1.21,1.2v9.34Z"/><path d="M294.43,348.76h-7.68V317.21a1.06,1.06,0,0,0-1.21-1.2h-20.4v32.75h-7.68V309.23h30a6.59,6.59,0,0,1,6.93,6.93Z"/><path d="M339,341.84a6.59,6.59,0,0,1-6.93,6.92H309.71a6.59,6.59,0,0,1-6.92-6.92v-6.33h7.68v5.27a1.06,1.06,0,0,0,1.2,1.21h18.45a1.07,1.07,0,0,0,1.21-1.21v-8a1.07,1.07,0,0,0-1.21-1.21H309.71a6,6,0,0,1-6.55-6.55v-8.81a6.59,6.59,0,0,1,6.93-6.93h21.24a6.59,6.59,0,0,1,6.92,6.93v5.35h-7.68v-4.3a1.06,1.06,0,0,0-1.2-1.2H312.05a1.07,1.07,0,0,0-1.21,1.2v6.48a1.07,1.07,0,0,0,1.21,1.2h20.41a6,6,0,0,1,6.55,6.55Z"/></g></g></svg>