<svg xmlns="http://www.w3.org/2000/svg" viewBox="0 0 231.46 254.67"><defs><style>.cls-1{fill:#7495c8;}.cls-2{fill:#bbd2ff;}.cls-2,.cls-3{stroke:#000;stroke-miterlimit:10;}.cls-3{fill:#ffeac5;}.cls-4{fill:#fff;}.cls-5{fill:#6c6a83;}</style></defs><g id="Layer_2" data-name="Layer 2"><g id="Layer_1-2" data-name="Layer 1"><circle class="cls-1" cx="120.82" cy="146.28" r="46.52" transform="translate(-46.78 57.37) rotate(-22.5)"/><path class="cls-2" d="M125.15,96.51A50,50,0,1,1,74.32,128,56.68,56.68,0,0,1,98.2,97.69c1.5-.94,2.94-2,4.88-3.3-2.31-4.19-4.44-8.47-7-12.53C86,65.46,72.41,52.28,56.85,41c-1.91-1.38-3.08-1.27-4.87.14C25.82,61.82,13,89.54,9.61,122c-2.84,27.43,2.33,53.39,17.06,77,27.91,44.7,86.49,61.17,132.26,33.72,27.22-16.32,41.25-40.51,39.24-72.66a73,73,0,0,0-21.58-48.1C163.87,99.14,143.6,93.75,125.15,96.51Z"/><path class="cls-3" d="M109.42,87.77c1.29,2.56,2.52,3.07,5.29,2.3,13.1-3.6,26.39-4.56,39.5-.41A76.79,76.79,0,0,1,172,97.82l.1-.17c10.52-15.42,12.24-28.68,5.14-39.52l-.11-.16a32.73,32.73,0,0,0-3.43-4.29C154,32.84,101.12,27.62,71,42.67,86.81,54.85,100.18,69.33,109.42,87.77Z"/><circle class="cls-4" cx="120.82" cy="146.28" r="46.52" transform="translate(-46.78 57.37) rotate(-22.5)"/><path d="M120.82,103.14a43.31,43.31,0,1,0,43.3,43.31A43.35,43.35,0,0,0,120.82,103.14Zm0,84.51a41.2,41.2,0,1,1,41.2-41.2A41.25,41.25,0,0,1,120.82,187.65Z"/><path d="M153.81,155.77a34.28,34.28,0,0,0-33-43.6,34.11,34.11,0,0,0-14.44,3.19,59.69,59.69,0,0,1-18.11,20.31,34.3,34.3,0,0,0,40.87,44A39.7,39.7,0,0,1,153.81,155.77Zm-33,9A18.33,18.33,0,0,1,104,139.09a5.82,5.82,0,1,1,7.39-8.37,18.33,18.33,0,1,1,9.4,34.06Z"/><path class="cls-5" d="M120.82,128.13a18.19,18.19,0,0,0-9.4,2.59,5.76,5.76,0,0,1,.9,3.09,5.82,5.82,0,0,1-8.29,5.28,18.33,18.33,0,1,0,16.79-11Z"/><path class="cls-4" d="M111.42,130.72a5.81,5.81,0,1,0,.9,3.09A5.81,5.81,0,0,0,111.42,130.72Z"/><path d="M230,6.52a4.82,4.82,0,0,0-6.83,0L181.66,48.07l-.94-1a56.41,56.41,0,0,0-13.09-10l7.85-31a4.84,4.84,0,0,0-9.38-2.37l-7.35,29a115.22,115.22,0,0,0-34.63-7.86C100.67,23,77.63,27.29,62.41,36.38Q59,34,55.47,31.78c-2.39-1.52-4.63-3.29-7.29-5.21-10.77,10-19.29,22.16-26.93,35C10,80.52,2.11,100.63.46,122.78c-2.76,36.8,6.86,69.81,31.76,97.48,33.08,36.77,88.2,45,131,20.14,36.18-21,52.67-63.57,39.29-102.29-4.89-14.14-12.39-25.83-22.78-34.61.11-.13.22-.26.32-.4,14.31-21,12.39-36.64,7.14-46.92L230,13.35A4.82,4.82,0,0,0,230,6.52ZM198.17,160c2,32.15-12,56.34-39.24,72.66-45.77,27.45-104.35,11-132.26-33.72-14.73-23.59-19.9-49.55-17.06-77C13,89.54,25.82,61.82,52,41.17c1.79-1.41,3-1.52,4.87-.14C72.41,52.28,86,65.46,96.13,81.86c2.51,4.06,4.64,8.34,7,12.53-1.94,1.32-3.38,2.36-4.88,3.3A56.68,56.68,0,0,0,74.32,128a50,50,0,1,0,50.83-31.48c18.45-2.76,38.72,2.63,51.44,15.42A73,73,0,0,1,198.17,160ZM120.82,99.76a46.53,46.53,0,1,1-46.53,46.52A46.57,46.57,0,0,1,120.82,99.76Zm51.27-2.11-.1.17a76.79,76.79,0,0,0-17.78-8.16c-13.11-4.15-26.4-3.19-39.5.41-2.77.77-4,.26-5.29-2.3C100.18,69.33,86.81,54.85,71,42.67c30.08-15,82.94-9.83,102.65,11A32.73,32.73,0,0,1,177.12,58l.11.16C184.33,69,182.61,82.23,172.09,97.65Z"/></g></g></svg>